<svg width="35" height="35" viewBox="0 0 39 39" fill="none" xmlns="http://www.w3.org/2000/svg">
<path d="M23.2138 0.704346L25.3559 0.704346L27.32 0.704346C27.6591 0.704346 27.7709 1.00249 27.7843 1.15156V9.96843H31.9273C36.9663 10.3193 38.8082 14.4908 38.6967 16.5395V26.4583C38.6967 30.3266 34.7036 32.817 32.4662 32.9817H30.1724C29.482 32.9817 29.3678 33.0764 29.3678 33.3832V37.0972C29.3678 37.6056 29.0179 38.6849 28.843 38.6922C27.7158 38.6849 25.326 38.6747 24.7849 38.6922C24.2439 38.7098 24.1708 37.3236 24.2019 37.0972V33.3832C24.2483 32.9817 23.9941 32.9817 23.6465 32.9817H23.6422H17.0292C16.7867 32.9817 16.7055 33.2739 16.6952 33.4201V37.0913C16.6952 37.4639 16.4142 38.6374 16.2737 38.6922C15.0129 38.7014 12.4033 38.7142 12.0505 38.6922C11.6978 38.6703 11.6082 37.2922 11.6075 37.0913V25.8539C11.5957 25.299 11.6075 25.135 12.0505 25.0632C13.3057 24.8597 15.9075 24.4583 16.2737 24.4805C16.6399 24.5027 16.7073 24.7255 16.6952 24.8342V27.8979C16.6952 28.1489 16.9178 28.2609 17.0292 28.2855H31.5462C32.5206 28.2855 33.5499 27.3258 33.6856 26.4583V17.0283C33.6856 15.4657 32.1387 14.7871 31.2618 14.7878C26.7294 14.7913 17.5766 14.7963 17.2236 14.7878C16.8706 14.7793 16.7522 15.0464 16.7371 15.181C16.7333 16.0491 16.7281 17.8723 16.7371 18.2209C16.7462 18.5696 17.0652 18.6998 17.2236 18.7213H20.5359C21.8639 18.6709 22.7219 17.3665 22.7219 16.5395L27.7563 16.0278C27.8711 20.8753 23.8014 23.1705 21.4038 23.4852H7.61701C3.17908 23.5017 0.701416 19.2743 0.701416 16.8294L0.701416 10.5138C0.701416 10.1871 0.991138 10.0828 1.136 10.0715H5.28265C5.68102 10.0783 5.75108 10.2841 5.75108 10.4273V16.8294C5.89554 17.7568 6.89479 18.6391 7.61701 18.7213H10.967C11.478 18.7213 11.621 18.6188 11.621 18.432L11.621 10.6319C11.621 10.1081 12.1121 9.97135 12.3576 9.96843L22.7219 9.96843V1.15156C22.7219 0.841491 22.9316 0.704346 23.2138 0.704346Z" fill="#DD457C"/>
</svg>
